<?xml version="1.0" encoding="UTF-8" standalone="no"?>
<!-- Created with Inkscape (http://www.inkscape.org/) -->

<svg
   width="48"
   height="48"
   viewBox="0 0 12.7 12.7"
   version="1.1"
   id="svg5"
   inkscape:version="1.2.2 (732a01da63, 2022-12-09)"
   sodipodi:docname="time-butler-logo.svg"
   inkscape:export-filename="time-butler-logox48.svg"
   inkscape:export-xdpi="96"
   inkscape:export-ydpi="96"
   xmlns:inkscape="http://www.inkscape.org/namespaces/inkscape"
   xmlns:sodipodi="http://sodipodi.sourceforge.net/DTD/sodipodi-0.dtd"
   xmlns="http://www.w3.org/2000/svg"
   xmlns:svg="http://www.w3.org/2000/svg">
  <sodipodi:namedview
     id="namedview7"
     pagecolor="#ffffff"
     bordercolor="#000000"
     borderopacity="0.25"
     inkscape:showpageshadow="2"
     inkscape:pageopacity="0.0"
     inkscape:pagecheckerboard="0"
     inkscape:deskcolor="#d1d1d1"
     inkscape:document-units="mm"
     showgrid="false"
     inkscape:zoom="8.5398528"
     inkscape:cx="26.405607"
     inkscape:cy="7.7284704"
     inkscape:window-width="1366"
     inkscape:window-height="715"
     inkscape:window-x="-8"
     inkscape:window-y="-8"
     inkscape:window-maximized="1"
     inkscape:current-layer="layer1" />
  <defs
     id="defs2">
    <filter
       inkscape:collect="always"
       style="color-interpolation-filters:sRGB"
       id="filter3408"
       x="-0.085721"
       y="-0.098493244"
       width="1.171442"
       height="1.1969865">
      <feGaussianBlur
         inkscape:collect="always"
         stdDeviation="0.41589866"
         id="feGaussianBlur3410" />
    </filter>
  </defs>
  <g
     inkscape:label="Layer 1"
     inkscape:groupmode="layer"
     id="layer1">
    <text
       xml:space="preserve"
       style="font-size:14.1111px;font-family:Borel;-inkscape-font-specification:Borel;opacity:0.836683;fill:#f3f3f3;stroke:#000000;stroke-width:0.264999"
       x="20.824146"
       y="6.9203453"
       id="text1520"><tspan
         sodipodi:role="line"
         id="tspan1518"
         style="font-style:normal;font-variant:normal;font-weight:normal;font-stretch:normal;font-family:Butler;-inkscape-font-specification:Butler;stroke-width:0.265"
         x="20.824146"
         y="6.9203453">Bb</tspan></text>
    <path
       d="m -4.7268767,-20.688901 c 0.8607771,0 2.0319984,0.141111 2.0319984,2.215443 0,2.144887 -0.9313326,2.412998 -1.8062208,2.412998 h -0.8466661 v -4.628441 z m 4.21921888,7.224884 c 0,-2.384776 -2.10255388,-2.568221 -3.01977538,-2.568221 0.282222,0 2.3565537,-0.225777 2.3565537,-2.427109 0,-2.300109 -1.6651098,-2.412998 -3.6265527,-2.412998 h -2.8222201 v 0.127 c 0.6208884,0 0.8184438,0.663222 0.8184438,1.53811 v 6.575773 c 0,0.959554 -0.2116665,1.566332 -0.8184438,1.566332 v 0.127 h 2.8222201 c 2.4412203,0 4.28977438,-0.07056 4.28977438,-2.525887 z m -1.58044318,-0.05645 c 0,2.427109 -1.2841101,2.398887 -2.6387757,2.398887 h -0.6208885 v -4.755441 h 0.8466661 c 1.0442214,0 2.4129981,0.07056 2.4129981,2.356554 z"
       style="font-size:14.1111px;font-family:Butler;-inkscape-font-specification:Butler;opacity:0.836683;fill:#f3f3f3;stroke:#000000;stroke-width:0.265"
       id="path1734" />
    <path
       d="m 11.904835,-16.758698 c 0,2.243665 -0.917222,2.94922 -1.862665,2.94922 -0.9454441,0 -1.7215546,-0.691444 -1.7215546,-2.158998 v -2.130777 c 0,-1.086554 0.5926665,-1.834443 1.6227765,-1.834443 1.2276661,0 1.9614431,0.959555 1.9614431,3.174998 z m 1.481665,-0.197555 c 0,-1.933221 -1.086554,-3.443109 -2.963331,-3.443109 -0.7196661,0 -1.6792201,0.366889 -2.1025536,1.128888 v -4.896552 l -1.9473318,0.381 v 0.183444 c 0.5926662,0.112889 0.7196661,0.310445 0.7196661,0.790222 v 8.988771 c 0,0.225777 0.6349995,-0.112889 1.0159992,-0.508 0.465666,0.437444 1.142999,0.705555 1.9755541,0.705555 1.876776,0 3.301997,-1.15711 3.301997,-3.330219 z"
       style="font-size:14.1111px;font-family:Butler;-inkscape-font-specification:Butler;opacity:0.836683;fill:#f3f3f3;stroke:#000000;stroke-width:0.265"
       id="path1736" />
    <path
       id="path1741"
       style="font-size:14.1111px;font-family:Butler;-inkscape-font-specification:Butler;opacity:0.836683;fill:#f3f3f3;stroke:#000000;stroke-width:0.265"
       d="M -25.012944 -4.2741577 C -26.974385 -4.2741577 -28.639596 -4.1614922 -28.639596 -1.8613851 C -28.639596 0.33994424 -26.564855 0.56585693 -26.282633 0.56585693 C -27.199855 0.56585693 -29.302604 0.74940203 -29.302604 3.1341756 C -29.302604 5.5895006 -27.454162 5.6601196 -25.012944 5.6601196 L -24.649141 5.6601196 L -24.649141 5.4766683 L -25.083223 5.4766683 C -26.437887 5.4766683 -27.722339 5.5049553 -27.722339 3.0778483 C -27.722339 0.79185242 -26.35327 0.72140299 -25.309049 0.72140299 L -24.649141 0.72140299 L -24.649141 0.53795166 L -25.309049 0.53795166 C -26.183938 0.53795166 -27.115658 0.26954726 -27.115658 -1.8753377 C -27.115658 -3.9496676 -25.944 -4.0907064 -25.083223 -4.0907064 L -24.649141 -4.0907064 L -24.649141 -4.2741577 L -25.012944 -4.2741577 z " />
    <path
       id="path1743"
       style="font-size:14.1111px;font-family:Butler;-inkscape-font-specification:Butler;opacity:0.836683;fill:#f3f3f3;stroke:#000000;stroke-width:0.265"
       d="m -25.45465,-18.157981 v 9.9342782 h 2.247925 v -0.126608 c -0.606777,0 -0.818555,-0.607276 -0.818555,-1.566829 v -6.5753092 c 0,-0.874887 0.197667,-1.538408 0.818555,-1.538408 v -0.127124 z" />
    <path
       id="path1803"
       style="font-size:14.1111px;font-family:Butler;-inkscape-font-specification:Butler;opacity:0.836683;fill:#f3f3f3;stroke:#000000;stroke-width:0.265"
       d="m -25.090847,-4.2741577 c 1.961441,0 3.626652,0.1126655 3.626652,2.4127726 0,2.20132934 -2.074741,2.42724203 -2.356963,2.42724203 0.917222,0 3.019971,0.1835451 3.019971,2.56831867 0,2.455325 -1.848442,2.525944 -4.28966,2.525944 H -25.45465 V 5.4766683 h 0.434082 c 1.354664,0 2.639116,0.028287 2.639116,-2.39882 0,-2.28599588 -1.369069,-2.35644531 -2.41329,-2.35644531 H -25.45465 V 0.53795166 h 0.659908 c 0.874889,0 1.806609,-0.2684044 1.806609,-2.41328936 0,-2.0743299 -1.171658,-2.2153687 -2.032435,-2.2153687 h -0.434082 v -0.1834513 z" />
    <path
       id="path1805"
       style="font-size:14.1111px;font-family:Butler;-inkscape-font-specification:Butler;opacity:0.836683;fill:#f3f3f3;stroke:#000000;stroke-width:0.265"
       d="m -20.045805,5.6601196 h -9.934278 v 2.247925 h 0.126608 c 0,-0.606777 0.607276,-0.818555 1.566829,-0.818555 h 6.57531 c 0.874887,0 1.538407,0.197667 1.538407,0.818555 h 0.127124 z" />
    <path
       id="path1807"
       style="font-size:14.1111px;font-family:Butler;-inkscape-font-specification:Butler;opacity:0.836683;fill:#f3f3f3;stroke:#000000;stroke-width:0.265"
       d="m -20.487511,-4.2741577 h -9.934278 v -2.247925 h 0.126608 c 0,0.606777 0.607276,0.818555 1.566829,0.818555 h 6.57531 c 0.874887,0 1.538407,-0.197667 1.538407,-0.818555 h 0.127124 z" />
    <path
       id="path1809"
       style="font-size:14.1111px;font-family:Butler;-inkscape-font-specification:Butler;opacity:0.836683;fill:#f3f3f3;stroke:#000000;stroke-width:0.265"
       d="m -10.234569,-4.0091577 c -1.961441,0 -3.626652,0.1126655 -3.626652,2.4127726 0,2.20132933 2.074741,2.42724202 2.356963,2.42724202 -0.917222,0 -3.019971,0.18354508 -3.019971,2.56831868 0,2.455325 1.848442,2.525944 4.28966,2.525944 h 0.3638028 V 5.7416683 h -0.4340818 c -1.354664,0 -2.639116,0.028287 -2.639116,-2.39882 0,-2.2859959 1.369069,-2.35644532 2.41329,-2.35644532 h 0.6599078 V 0.80295165 h -0.6599078 c -0.874889,0 -1.806609,-0.2684044 -1.806609,-2.41328935 0,-2.0743299 1.171658,-2.2153687 2.032435,-2.2153687 h 0.4340818 v -0.1834513 z" />
    <path
       id="path1811"
       style="font-size:14.1111px;font-family:Butler;-inkscape-font-specification:Butler;opacity:0.836683;fill:#f3f3f3;stroke:#000000;stroke-width:0.265"
       d="m -10.312472,-4.0091577 c 1.9614408,0 3.6266518,0.1126655 3.6266518,2.4127726 0,2.20132933 -2.074741,2.42724202 -2.356963,2.42724202 0.917222,0 3.019971,0.18354508 3.019971,2.56831868 0,2.455325 -1.848442,2.525944 -4.2896598,2.525944 h -0.363803 V 5.7416683 h 0.434082 c 1.3546638,0 2.6391158,0.028287 2.6391158,-2.39882 0,-2.2859959 -1.369069,-2.35644532 -2.4132898,-2.35644532 h -0.659908 V 0.80295165 h 0.659908 c 0.8748888,0 1.8066088,-0.2684044 1.8066088,-2.41328935 0,-2.0743299 -1.171658,-2.2153687 -2.0324348,-2.2153687 h -0.434082 v -0.1834513 z" />
    <path
       id="path1813"
       style="font-size:14.1111px;font-family:Butler;-inkscape-font-specification:Butler;opacity:0.836683;fill:#f3f3f3;stroke:#000000;stroke-width:0.265"
       d="m -5.2674302,5.9251196 h -9.9342778 v 2.247925 h 0.126608 c 0,-0.606777 0.607276,-0.818555 1.566829,-0.818555 h 6.5753098 c 0.874887,0 1.538407,0.197667 1.538407,0.818555 h 0.127124 z" />
    <path
       id="path1815"
       style="font-size:14.1111px;font-family:Butler;-inkscape-font-specification:Butler;opacity:0.836683;fill:#f3f3f3;stroke:#000000;stroke-width:0.265"
       d="m -5.7091362,-4.0091577 h -9.9342778 v -2.247925 h 0.126608 c 0,0.606777 0.607276,0.818555 1.566829,0.818555 h 6.5753098 c 0.874887,0 1.538407,-0.197667 1.538407,-0.818555 h 0.127124 z" />
    <path
       id="path1817"
       style="font-size:14.1111px;font-family:Butler;-inkscape-font-specification:Butler;opacity:0.836683;fill:#f3f3f3;stroke:#000000;stroke-width:0.265"
       d="m -14.357523,15.788485 v 0.183452 h 0.434082 c 0.860776,0 2.032434,0.14104 2.032434,2.215368 0,2.144883 -0.93172,2.41329 -1.806608,2.41329 h -0.659908 v 0.155029 h 2.787944 c -0.434708,-0.107448 -0.856971,-0.127124 -1.154452,-0.127124 0.282222,0 2.356962,-0.225915 2.356962,-2.427242 0,-2.300106 -1.665213,-2.412773 -3.626652,-2.412773 z" />
    <path
       id="path1819"
       style="font-size:14.1111px;font-family:Butler;-inkscape-font-specification:Butler;opacity:0.836683;fill:#f3f3f3;stroke:#000000;stroke-width:0.265"
       d="m -30.332988,16.17866 c 1.961441,0 3.626652,0.112665 3.626652,2.412773 0,2.201329 -2.074741,2.427242 -2.356963,2.427242 0.917222,0 3.019971,0.183545 3.019971,2.568318 0,2.455325 -1.848442,2.525944 -4.28966,2.525944 h -0.363803 v -0.183451 h 0.434082 c 1.354664,0 2.639116,0.02829 2.639116,-2.39882 0,-2.285996 -1.369069,-2.356445 -2.41329,-2.356445 h -0.659908 v -0.183452 h 0.659908 c 0.874889,0 1.806609,-0.268404 1.806609,-2.413289 0,-2.07433 -1.171658,-2.215369 -2.032435,-2.215369 h -0.434082 V 16.17866 Z" />
    <path
       id="path1824"
       style="font-size:14.1111px;font-family:Butler;-inkscape-font-specification:Butler;opacity:0.836683;fill:#f3f3f3;stroke:#000000;stroke-width:0.265"
       d="m -14.357523,25.722763 v -0.183452 h 0.434082 c 0.860776,0 2.032434,-0.14104 2.032434,-2.215368 0,-2.144883 -0.93172,-2.41329 -1.806608,-2.41329 h -0.659908 v -0.155029 h 2.787944 c -0.434708,0.107448 -0.856971,0.127124 -1.154452,0.127124 0.282222,0 2.356962,0.225915 2.356962,2.427242 0,2.300106 -1.665213,2.412773 -3.626652,2.412773 z" />
    <path
       id="path1826"
       style="font-size:14.1111px;font-family:Butler;-inkscape-font-specification:Butler;opacity:0.836683;fill:#f3f3f3;stroke:#000000;stroke-width:0.265"
       d="m -13.043907,15.788485 v 0.183452 h -0.434082 c -0.860776,0 -2.032434,0.14104 -2.032434,2.215368 0,2.144883 0.93172,2.41329 1.806608,2.41329 h 0.659908 v 0.155029 h -2.787944 c 0.434708,-0.107448 0.856971,-0.127124 1.154452,-0.127124 -0.282222,0 -2.356962,-0.225915 -2.356962,-2.427242 0,-2.300106 1.665213,-2.412773 3.626652,-2.412773 z" />
    <path
       id="path1828"
       style="font-size:14.1111px;font-family:Butler;-inkscape-font-specification:Butler;opacity:0.836683;fill:#f3f3f3;stroke:#000000;stroke-width:0.265"
       d="m -13.043907,25.722763 v -0.183452 h -0.434082 c -0.860776,0 -2.032434,-0.14104 -2.032434,-2.215368 0,-2.144883 0.93172,-2.41329 1.806608,-2.41329 h 0.659908 v -0.155029 h -2.787944 c 0.434708,0.107448 0.856971,0.127124 1.154452,0.127124 -0.282222,0 -2.356962,0.225915 -2.356962,2.427242 0,2.300106 1.665213,2.412773 3.626652,2.412773 z" />
    <path
       id="path1830"
       style="font-size:14.1111px;font-family:Butler;-inkscape-font-specification:Butler;opacity:0.836683;fill:#f3f3f3;stroke:#000000;stroke-width:0.265"
       d="m -8.4405701,25.722763 h -9.9342779 v 2.247925 h 0.126608 c 0,-0.606777 0.607276,-0.818555 1.566829,-0.818555 h 6.57531 c 0.8748869,0 1.5384069,0.197667 1.5384069,0.818555 h 0.127124 z" />
    <path
       id="path1832"
       style="font-size:14.1111px;font-family:Butler;-inkscape-font-specification:Butler;opacity:0.836683;fill:#f3f3f3;stroke:#000000;stroke-width:0.265"
       d="m -8.4405701,15.588297 h -9.9342779 v -2.247925 h 0.126608 c 0,0.606777 0.607276,0.818555 1.566829,0.818555 h 6.57531 c 0.8748869,0 1.5384069,-0.197667 1.5384069,-0.818555 h 0.127124 z" />
    <path
       id="path2560"
       style="font-size:14.1111px;font-family:Butler;-inkscape-font-specification:Butler;opacity:0.836683;fill:#f3f3f3;stroke:#000000;stroke-width:0.265"
       d="m -10.102069,25.722762 v -9.934277 h 2.2479254 v 0.126608 c -0.606777,0 -0.818555,0.607276 -0.818555,1.566829 v 6.57531 c 0,0.874886 0.197667,1.538406 0.818555,1.538406 v 0.127124 z" />
    <path
       id="path2562"
       style="font-size:14.1111px;font-family:Butler;-inkscape-font-specification:Butler;opacity:0.836683;fill:#f3f3f3;stroke:#000000;stroke-width:0.265"
       d="m -17.250885,25.522574 v -9.934277 h -2.247926 v 0.126608 c 0.606777,0 0.818555,0.607276 0.818555,1.566829 v 6.57531 c 0,0.874886 -0.197667,1.538406 -0.818555,1.538406 v 0.127124 z" />
    <path
       id="path2564"
       style="font-size:14.1111px;font-family:Butler;-inkscape-font-specification:Butler;opacity:0.836683;mix-blend-mode:normal;fill:#808080;stroke:none;stroke-width:0.265;filter:url(#filter3408)"
       d="m 0.52787487,1.2828667 v 0.126607 c 0.60677643,0 0.81855473,0.607277 0.81855473,1.56683 v 6.5753094 c 0,0.8748859 -0.1976673,1.5384079 -0.81855473,1.5384079 v 0.127124 H 2.7757997 V 1.2828667 Z m 5.14128823,0.199988 v 0.01912 c -1.5205613,0.079322 -2.6768392,0.476895 -2.6768392,2.393652 0,2.201325 2.0747404,2.427242 2.3569621,2.427242 -0.2974807,0 -0.7197439,0.019676 -1.1544515,0.127124 0.4347076,0.107448 0.8569708,0.127124 1.1544515,0.127124 -0.2822217,0 -2.3569621,0.225918 -2.3569621,2.4272421 0,1.9167542 1.1562828,2.3143302 2.6768392,2.3936542 v 0.01912 h 0.3638021 c 0.098597,0 0.1960793,-2.01e-4 0.2930054,-10e-4 0.096824,8.31e-4 0.1945146,10e-4 0.2930054,10e-4 h 0.363802 v -0.01912 c 1.5203017,-0.07939 2.6768393,-0.477117 2.6768393,-2.3936542 0,-2.2013241 -2.0747404,-2.4272421 -2.3569621,-2.4272421 0.2974807,0 0.7197439,-0.019676 1.1544515,-0.127124 -0.4347076,-0.107448 -0.8569708,-0.127124 -1.1544515,-0.127124 0.2822217,0 2.3569621,-0.225917 2.3569621,-2.427242 0,-1.91654 -1.1565326,-2.314267 -2.6768393,-2.393652 v -0.01912 H 6.618976 c -0.098491,0 -0.1961813,7.19e-4 -0.2930054,0.00155 -0.096927,-8.33e-4 -0.1944079,-0.00155 -0.2930054,-0.00155 z m 4.2550372,0 v 9.9342783 h 2.2479247 v -0.127124 c -0.620887,0 -0.818555,-0.663522 -0.818555,-1.5384079 V 3.1762907 c 0,-0.959552 0.211779,-1.566829 0.818555,-1.566829 v -0.126607 z m -3.5982297,0.187585 c 0.8267115,0.033304 1.8097086,0.311217 1.8097086,2.211235 0,2.14488 -0.9317209,2.413289 -1.806608,2.413289 h -0.0062 c -0.8748871,0 -1.8066081,-0.268409 -1.8066081,-2.413289 0,-1.900142 0.9829638,-2.177961 1.8097087,-2.211235 z m -0.0031,4.934583 h 0.0062 c 0.8748871,0 1.806608,0.268408 1.806608,2.413289 0,1.9000193 -0.9829971,2.1779323 -1.8097086,2.2112363 -0.8267443,-0.03327 -1.8097081,-0.311093 -1.8097081,-2.2112363 0,-2.144881 0.931721,-2.413289 1.8066087,-2.413289 z" />
    <path
       id="path2572"
       style="font-size:14.1111px;font-family:Butler;-inkscape-font-specification:Butler;opacity:0.836683;fill:#f3f3f3;stroke:#000000;stroke-width:0.265"
       d="m 37.114861,26.846726 h -9.934278 v 2.247925 h 0.126609 c 0,-0.606777 0.607275,-0.818555 1.566828,-0.818555 h 6.57531 c 0.874887,0 1.538407,0.197667 1.538407,0.818555 h 0.127124 z" />
    <path
       id="path2581"
       style="font-size:14.1111px;font-family:Butler;-inkscape-font-specification:Butler;opacity:0.809045;mix-blend-mode:normal;fill:#000000;stroke:none;stroke-width:0.259046"
       d="m 0.52489777,1.2798902 v 0.1237623 c 0.59314303,0 0.80016283,0.5936323 0.80016283,1.5316255 v 6.427571 c 0,0.855228 -0.1932259,1.503842 -0.80016283,1.503842 v 0.124267 H 2.7223143 V 1.2798902 Z M 5.5506684,1.4753848 v 0.01869 c -1.486396,0.07754 -2.6166941,0.4661798 -2.6166941,2.3398699 0,2.1518643 2.0281235,2.3727052 2.3040043,2.3727052 -0.290797,0 -0.7035723,0.019234 -1.128513,0.1242677 0.4249407,0.1050338 0.837716,0.1242677 1.128513,0.1242677 -0.2758808,0 -2.3040043,0.2208419 -2.3040043,2.3727053 0,1.8736874 1.130302,2.2623304 2.6166941,2.3398724 v 0.01869 h 0.3556279 c 0.096385,0 0.1916734,-1.97e-4 0.2864216,-9.78e-4 0.094645,8.13e-4 0.1901445,9.78e-4 0.2864226,9.78e-4 h 0.3556278 v -0.01869 c 1.4861429,-0.07761 2.6166941,-0.466397 2.6166941,-2.3398724 0,-2.1518634 -2.0281234,-2.3727053 -2.3040043,-2.3727053 0.290797,0 0.7035724,-0.019234 1.1285131,-0.1242677 C 7.8510305,6.2258842 7.4382551,6.2066503 7.1474581,6.2066503 c 0.2758809,0 2.3040043,-0.2208409 2.3040043,-2.3727052 0,-1.873478 -1.1305473,-2.2622686 -2.6166941,-2.3398699 v -0.01869 H 6.4791405 c -0.096277,0 -0.1917731,7.028e-4 -0.2864226,0.00152 -0.094752,-8.143e-4 -0.1900399,-0.00152 -0.2864216,-0.00152 z m 4.1594322,0 v 9.7110682 h 2.1974184 v -0.124268 c -0.606937,0 -0.800164,-0.648613 -0.800164,-1.5038411 V 3.1307716 c 0,-0.9379922 0.207021,-1.5316245 0.800164,-1.5316245 V 1.4753848 Z M 6.1927179,1.658755 c 0.8081369,0.032556 1.7690473,0.3042244 1.7690473,2.1615516 0,2.0966875 -0.9107865,2.3590657 -1.766016,2.3590657 h -0.00606 c -0.8552295,0 -1.766016,-0.2623782 -1.766016,-2.3590657 0,-1.8574485 0.9608782,-2.1290252 1.7690474,-2.1615516 z m -0.00303,4.8237097 h 0.00606 c 0.8552305,0 1.7660161,0.2623771 1.7660161,2.3590658 0,1.8573275 -0.9609105,2.1289965 -1.7690464,2.1615525 C 5.3845487,10.97056 4.4236715,10.69898 4.4236715,8.8415305 c 0,-2.0966887 0.9107866,-2.3590658 1.7660164,-2.3590658 z" />
    <text
       xml:space="preserve"
       style="font-style:normal;font-variant:normal;font-weight:normal;font-stretch:normal;font-size:14.1111px;font-family:Butler;-inkscape-font-specification:Butler;opacity:1;fill:#808080;stroke:none;stroke-width:0.264999"
       x="51.853218"
       y="11.290133"
       id="text2639"><tspan
         sodipodi:role="line"
         id="tspan2637"
         style="stroke-width:0.265"
         x="51.853218"
         y="11.290133">v</tspan></text>
    <g
       aria-label="v"
       id="text2643"
       style="font-size:14.1111px;font-family:Butler;-inkscape-font-specification:Butler;opacity:1;fill:#000000;stroke-width:0.264999">
      <path
         d="m 32.147722,14.109296 v 0.183444 c 1.53811,0 0.790222,1.876776 0.790222,1.876776 l -1.086555,2.920998 -1.749776,-3.824108 c 0,0 -0.508,-0.973666 0.437444,-0.973666 v -0.183444 h -2.935109 v 0.183444 c 0.239889,0.01411 0.635,0 0.987777,0.705555 0,0 0.183444,0.338666 2.681109,5.757329 h 0.141111 l 1.749777,-4.656663 c 0.747888,-1.79211 1.171221,-1.806221 1.707443,-1.806221 v -0.183444 z"
         style="stroke-width:0.265;fill:#000000"
         id="path2645" />
    </g>
    <g
       aria-label="v"
       id="g2650"
       style="font-size:14.1111px;font-family:Butler;-inkscape-font-specification:Butler;opacity:1;fill:#000000;stroke-width:0.264999"
       transform="matrix(1,0,0,-1,0,40.956022)">
      <path
         d="m 32.147722,14.109296 v 0.183444 c 1.53811,0 0.790222,1.876776 0.790222,1.876776 l -1.086555,2.920998 -1.749776,-3.824108 c 0,0 -0.508,-0.973666 0.437444,-0.973666 v -0.183444 h -2.935109 v 0.183444 c 0.239889,0.01411 0.635,0 0.987777,0.705555 0,0 0.183444,0.338666 2.681109,5.757329 h 0.141111 l 1.749777,-4.656663 c 0.747888,-1.79211 1.171221,-1.806221 1.707443,-1.806221 v -0.183444 z"
         style="stroke-width:0.265;fill:#000000"
         id="path2648" />
    </g>
    <path
       id="path2652"
       style="font-size:14.1111px;font-family:Butler;-inkscape-font-specification:Butler;opacity:0.836683;fill:#f3f3f3;stroke:#000000;stroke-width:0.265"
       d="m 37.114861,14.109296 h -9.934278 v -2.247925 h 0.126609 c 0,0.606777 0.607275,0.818555 1.566828,0.818555 h 6.57531 c 0.874887,0 1.538407,-0.197667 1.538407,-0.818555 h 0.127124 z" />
    <path
       id="path2654"
       style="font-size:14.1111px;font-family:Butler;-inkscape-font-specification:Butler;opacity:0.836683;fill:#f3f3f3;stroke:#000000;stroke-width:0.297562"
       d="M 34.617526,26.832905 V 14.123117 h 2.215361 v 0.161981 c -0.597987,0 -0.806697,0.77694 -0.806697,2.00458 v 8.412367 c 0,1.119321 0.194804,1.968219 0.806697,1.968219 v 0.162641 z" />
    <path
       id="path2656"
       style="font-size:14.1111px;font-family:Butler;-inkscape-font-specification:Butler;opacity:0.836683;fill:#f3f3f3;stroke:#000000;stroke-width:0.297562"
       d="M 28.127926,26.832905 V 14.123117 h -2.215361 v 0.161981 c 0.597987,0 0.806697,0.77694 0.806697,2.00458 v 8.412367 c 0,1.119321 -0.194804,1.968219 -0.806697,1.968219 v 0.162641 z" />
    <path
       id="path2666"
       style="font-size:14.1111px;font-family:Butler;-inkscape-font-specification:Butler;opacity:0.836683;fill:#808080;stroke:none;stroke-width:0.265"
       d="m 0.52787499,18.240225 v 0.126607 c 0.60677641,0 0.81855471,0.607277 0.81855471,1.56683 v 6.575309 c 0,0.874885 -0.1976673,1.538407 -0.81855471,1.538407 v 0.127124 H 2.7757998 v -9.934277 z m 5.14128821,0.199988 v 0.01912 c -1.5205613,0.07932 -2.6768392,0.476895 -2.6768392,2.393652 0,2.201325 2.0747404,2.427242 2.3569621,2.427242 -0.2974807,0 -0.7197439,0.01968 -1.1544515,0.127124 0.4347076,0.107448 0.8569708,0.127124 1.1544515,0.127124 -0.2822217,0 -2.3569621,0.225918 -2.3569621,2.427242 0,1.916753 1.1562828,2.314329 2.6768392,2.393653 v 0.01912 h 0.3638021 c 0.098597,0 0.1960793,-2.01e-4 0.2930054,-0.001 0.096824,8.31e-4 0.1945146,0.001 0.2930054,0.001 h 0.363802 v -0.01912 c 1.5203017,-0.07939 2.6768393,-0.477117 2.6768393,-2.393653 0,-2.201324 -2.0747404,-2.427242 -2.3569621,-2.427242 0.2974807,0 0.7197439,-0.01968 1.1544515,-0.127124 -0.4347076,-0.107448 -0.8569708,-0.127124 -1.1544515,-0.127124 0.2822217,0 2.3569621,-0.225917 2.3569621,-2.427242 0,-1.91654 -1.1565326,-2.314267 -2.6768393,-2.393652 v -0.01912 h -0.363802 c -0.098491,0 -0.1961813,7.19e-4 -0.2930054,0.0016 -0.096927,-8.33e-4 -0.1944079,-0.0016 -0.2930054,-0.0016 z m 4.2550372,0 v 9.934277 h 2.2479246 v -0.127124 c -0.620887,0 -0.818555,-0.663522 -0.818555,-1.538407 v -6.57531 c 0,-0.959552 0.211779,-1.566829 0.818555,-1.566829 v -0.126607 z m -3.5982297,0.187585 c 0.8267115,0.0333 1.8097086,0.311217 1.8097086,2.211235 0,2.14488 -0.9317209,2.413289 -1.806608,2.413289 h -0.0062 c -0.8748871,0 -1.8066081,-0.268409 -1.8066081,-2.413289 0,-1.900142 0.9829638,-2.177961 1.8097087,-2.211235 z m -0.0031,4.934583 h 0.0062 c 0.8748871,0 1.806608,0.268408 1.806608,2.413289 0,1.900018 -0.9829971,2.177931 -1.8097086,2.211235 C 5.4992258,28.153631 4.516262,27.875812 4.516262,25.97567 c 0,-2.144881 0.931721,-2.413289 1.8066087,-2.413289 z" />
    <path
       id="path2668"
       style="font-size:14.1111px;font-family:Butler;-inkscape-font-specification:Butler;opacity:0.836683;fill:#000000;stroke:none;stroke-width:0.265"
       d="m 0.527875,18.240225 v 0.126607 c 0.6067764,0 0.8185547,0.607277 0.8185547,1.56683 v 6.575309 c 0,0.874885 -0.1976673,1.538407 -0.8185547,1.538407 v 0.127124 h 2.2479248 v -9.934277 z m 5.1412882,0.199988 v 0.01912 c -1.5205613,0.07932 -2.6768392,0.476895 -2.6768392,2.393652 0,2.201325 2.0747404,2.427242 2.3569621,2.427242 -0.2974807,0 -0.7197439,0.01968 -1.1544515,0.127124 0.4347076,0.107448 0.8569708,0.127124 1.1544515,0.127124 -0.2822217,0 -2.3569621,0.225918 -2.3569621,2.427242 0,1.916753 1.1562828,2.314329 2.6768392,2.393653 v 0.01912 h 0.3638021 c 0.098597,0 0.1960793,-2.01e-4 0.2930054,-0.001 0.096824,8.31e-4 0.1945146,0.001 0.2930056,0.001 h 0.363802 v -0.01912 c 1.520302,-0.07939 2.676839,-0.477117 2.676839,-2.393653 0,-2.201324 -2.07474,-2.427242 -2.356962,-2.427242 0.297481,0 0.719744,-0.01968 1.154452,-0.127124 -0.434708,-0.107448 -0.856971,-0.127124 -1.154452,-0.127124 0.282222,0 2.356962,-0.225917 2.356962,-2.427242 0,-1.91654 -1.156533,-2.314267 -2.676839,-2.393652 v -0.01912 h -0.363802 c -0.09849,0 -0.196181,7.19e-4 -0.2930056,0.0016 -0.096927,-8.33e-4 -0.1944079,-0.0016 -0.2930054,-0.0016 z m 4.2550371,0 v 9.934277 h 2.2479247 v -0.127124 c -0.620887,0 -0.818555,-0.663522 -0.818555,-1.538407 v -6.57531 c 0,-0.959552 0.211779,-1.566829 0.818555,-1.566829 v -0.126607 z m -3.5982296,0.187585 c 0.8267116,0.0333 1.8097086,0.311217 1.8097086,2.211235 0,2.14488 -0.931721,2.413289 -1.806608,2.413289 h -0.0062 c -0.8748871,0 -1.8066081,-0.268409 -1.8066081,-2.413289 0,-1.900142 0.9829638,-2.177961 1.8097087,-2.211235 z m -0.0031,4.934583 h 0.0062 c 0.8748876,0 1.8066076,0.268408 1.8066076,2.413289 0,1.900018 -0.982997,2.177931 -1.8097082,2.211235 C 5.4992258,28.153635 4.516262,27.875812 4.516262,25.97567 c 0,-2.144881 0.931721,-2.413289 1.8066087,-2.413289 z" />
    <g
       aria-label="v"
       id="g2672"
       style="font-size:14.1111px;font-family:Butler;-inkscape-font-specification:Butler;opacity:1;fill:#000000;stroke-width:0.264999"
       transform="matrix(0.70352889,0,0,0.70352889,-15.630398,9.0126201)">
      <path
         d="m 32.147722,14.109296 v 0.183444 c 1.53811,0 0.790222,1.876776 0.790222,1.876776 l -1.086555,2.920998 -1.749776,-3.824108 c 0,0 -0.508,-0.973666 0.437444,-0.973666 v -0.183444 h -2.935109 v 0.183444 c 0.239889,0.01411 0.635,0 0.987777,0.705555 0,0 0.183444,0.338666 2.681109,5.757329 h 0.141111 l 1.749777,-4.656663 c 0.747888,-1.79211 1.171221,-1.806221 1.707443,-1.806221 v -0.183444 z"
         style="fill:#000000;stroke-width:0.265"
         id="path2670" />
    </g>
    <g
       aria-label="v"
       id="g2676"
       style="font-size:14.1111px;font-family:Butler;-inkscape-font-specification:Butler;opacity:1;fill:#000000;stroke-width:0.264999"
       transform="matrix(0.70352889,0,0,-0.70352889,-15.728109,37.854502)">
      <path
         d="m 32.147722,14.109296 v 0.183444 c 1.53811,0 0.790222,1.876776 0.790222,1.876776 l -1.086555,2.920998 -1.749776,-3.824108 c 0,0 -0.508,-0.973666 0.437444,-0.973666 v -0.183444 h -2.935109 v 0.183444 c 0.239889,0.01411 0.635,0 0.987777,0.705555 0,0 0.183444,0.338666 2.681109,5.757329 h 0.141111 l 1.749777,-4.656663 c 0.747888,-1.79211 1.171221,-1.806221 1.707443,-1.806221 v -0.183444 z"
         style="fill:#000000;stroke-width:0.265"
         id="path2674" />
    </g>
    <path
       id="path2678"
       style="font-size:14.1111px;font-family:Butler;-inkscape-font-specification:Butler;opacity:0.836683;fill:#b3b3b3;stroke:none;stroke-width:0.265"
       d="m -11.64425,7.9610004 v 0.126607 c 0.606776,0 0.818554,0.607277 0.818554,1.56683 v 6.5753096 c 0,0.874885 -0.197667,1.538407 -0.818554,1.538407 v 0.127124 h 2.2479246 V 7.9610004 Z m 5.141288,0.199988 v 0.01912 c -1.5205613,0.079322 -2.6768392,0.476895 -2.6768392,2.3936516 0,2.201325 2.0747404,2.427242 2.3569621,2.427242 -0.2974807,0 -0.7197439,0.01968 -1.1544515,0.127124 0.4347076,0.107448 0.8569708,0.127124 1.1544515,0.127124 -0.2822217,0 -2.3569621,0.225918 -2.3569621,2.427242 0,1.916754 1.1562828,2.31433 2.6768392,2.393654 v 0.01912 h 0.3638021 c 0.098597,0 0.1960793,-2.01e-4 0.2930054,-10e-4 0.096824,8.31e-4 0.1945146,10e-4 0.2930054,10e-4 h 0.363802 v -0.01912 c 1.5203017,-0.07939 2.676839,-0.477117 2.676839,-2.393654 0,-2.201324 -2.0747401,-2.427242 -2.3569618,-2.427242 0.2974807,0 0.7197439,-0.01968 1.1544515,-0.127124 -0.4347076,-0.107448 -0.8569708,-0.127124 -1.1544515,-0.127124 0.2822217,0 2.3569618,-0.225917 2.3569618,-2.427242 0,-1.9165396 -1.1565323,-2.3142666 -2.676839,-2.3936516 v -0.01912 h -0.363802 c -0.098491,0 -0.1961813,7.19e-4 -0.2930054,0.00155 -0.096927,-8.33e-4 -0.1944079,-0.00155 -0.2930054,-0.00155 z m 4.2550369,0 V 18.095266 H 0 v -0.127124 c -0.620887,0 -0.8185551,-0.663522 -0.8185551,-1.538407 V 9.8544244 c 0,-0.959552 0.2117791,-1.566829 0.8185551,-1.566829 v -0.126607 z m -3.5982294,0.187585 c 0.8267115,0.033304 1.8097086,0.311217 1.8097086,2.2112346 0,2.14488 -0.9317209,2.413289 -1.806608,2.413289 h -0.0062 c -0.8748871,0 -1.8066081,-0.268409 -1.8066081,-2.413289 0,-1.9001416 0.9829638,-2.1779606 1.8097087,-2.2112346 z m -0.0031,4.9345826 h 0.0062 c 0.8748871,0 1.806608,0.268408 1.806608,2.413289 0,1.900019 -0.9829971,2.177932 -1.8097086,2.211236 -0.8267443,-0.03327 -1.8097081,-0.311093 -1.8097081,-2.211236 0,-2.144881 0.931721,-2.413289 1.8066087,-2.413289 z" />
    <path
       id="path2680"
       style="font-size:14.1111px;font-family:Butler;-inkscape-font-specification:Butler;opacity:1;fill:#ffffff;stroke:#333333;stroke-width:0.259046;stroke-dasharray:none"
       d="m 1.0825772,0.84613951 v 0.12376233 c 0.5931426,0 0.8001622,0.59363236 0.8001622,1.53162566 v 6.4275724 c 0,0.8552278 -0.1932257,1.5038421 -0.8001622,1.5038421 v 0.124267 H 3.2799945 V 0.84613951 Z M 6.1083479,1.0416342 v 0.01869 c -1.4863962,0.07754 -2.6166943,0.4661798 -2.6166943,2.33987 0,2.1518646 2.0281236,2.3727055 2.3040045,2.3727055 -0.2907971,0 -0.7035724,0.019234 -1.1285122,0.1242678 0.4249398,0.1050338 0.8377151,0.1242677 1.1285122,0.1242677 -0.2758809,0 -2.3040045,0.2208419 -2.3040045,2.3727053 0,1.8736885 1.130303,2.2623315 2.6166943,2.3398725 v 0.01869 h 0.3556279 c 0.096385,0 0.1916744,-1.97e-4 0.2864226,-9.78e-4 0.094645,8.13e-4 0.1901435,9.78e-4 0.2864216,9.78e-4 h 0.3556279 v -0.01869 c 1.486143,-0.07761 2.6166941,-0.466396 2.6166941,-2.3398721 0,-2.1518634 -2.0281234,-2.3727053 -2.3040043,-2.3727053 0.2907971,0 0.7035724,-0.019234 1.1285132,-0.1242677 C 8.4087101,5.7921341 7.9959348,5.7729001 7.7051377,5.7729001 c 0.2758809,0 2.3040043,-0.220841 2.3040043,-2.3727055 0,-1.8734781 -1.1305472,-2.2622688 -2.6166941,-2.33987 v -0.01869 H 7.03682 c -0.096277,0 -0.1917731,7.028e-4 -0.2864216,0.00152 -0.094752,-8.143e-4 -0.1900399,-0.00152 -0.2864226,-0.00152 z m 4.1594331,0 v 9.7110698 h 2.197418 v -0.124268 c -0.606937,0 -0.800164,-0.6486148 -0.800164,-1.5038414 V 2.6970211 c 0,-0.9379922 0.207021,-1.5316246 0.800164,-1.5316246 V 1.0416342 Z M 6.7503984,1.2250043 c 0.808136,0.032556 1.7690465,0.3042244 1.7690465,2.1615518 0,2.0966878 -0.9107866,2.359066 -1.7660162,2.359066 h -0.00606 c -0.8552295,0 -1.7660161,-0.2623782 -1.7660161,-2.359066 0,-1.8574486 0.9608782,-2.1290253 1.7690458,-2.1615518 z m -0.00303,4.8237103 h 0.00606 c 0.8552296,0 1.7660152,0.2623772 1.7660152,2.3590658 0,1.8573286 -0.9609105,2.1289976 -1.7690465,2.1615536 -0.8081683,-0.03252 -1.7690465,-0.304104 -1.7690465,-2.1615536 0,-2.0966886 0.9107866,-2.3590658 1.7660178,-2.3590658 z" />
  </g>
</svg>
