<?xml version="1.0" encoding="UTF-8" standalone="no"?>
<!-- Created with Inkscape (http://www.inkscape.org/) -->

<svg
   width="48"
   height="48"
   viewBox="0 0 12.7 12.7"
   version="1.1"
   id="svg5"
   xmlns="http://www.w3.org/2000/svg"
   xmlns:svg="http://www.w3.org/2000/svg">
  <defs
     id="defs2">
    <filter
       style="color-interpolation-filters:sRGB"
       id="filter3408"
       x="-0.085721001"
       y="-0.098493241"
       width="1.171442"
       height="1.1969866">
      <feGaussianBlur
         stdDeviation="0.41589866"
         id="feGaussianBlur3410" />
    </filter>
  </defs>
  <g
     id="layer1">
    <path
       id="path2564"
       style="font-size:14.1111px;font-family:Butler;-inkscape-font-specification:Butler;opacity:0.836683;mix-blend-mode:normal;fill:#808080;stroke:none;stroke-width:0.265;filter:url(#filter3408)"
       d="m 0.52787487,1.2828667 v 0.126607 c 0.60677643,0 0.81855473,0.607277 0.81855473,1.56683 v 6.5753094 c 0,0.8748859 -0.1976673,1.5384079 -0.81855473,1.5384079 v 0.127124 H 2.7757997 V 1.2828667 Z m 5.14128823,0.199988 v 0.01912 c -1.5205613,0.079322 -2.6768392,0.476895 -2.6768392,2.393652 0,2.201325 2.0747404,2.427242 2.3569621,2.427242 -0.2974807,0 -0.7197439,0.019676 -1.1544515,0.127124 0.4347076,0.107448 0.8569708,0.127124 1.1544515,0.127124 -0.2822217,0 -2.3569621,0.225918 -2.3569621,2.4272421 0,1.9167542 1.1562828,2.3143302 2.6768392,2.3936542 v 0.01912 h 0.3638021 c 0.098597,0 0.1960793,-2.01e-4 0.2930054,-10e-4 0.096824,8.31e-4 0.1945146,10e-4 0.2930054,10e-4 h 0.363802 v -0.01912 c 1.5203017,-0.07939 2.6768393,-0.477117 2.6768393,-2.3936542 0,-2.2013241 -2.0747404,-2.4272421 -2.3569621,-2.4272421 0.2974807,0 0.7197439,-0.019676 1.1544515,-0.127124 -0.4347076,-0.107448 -0.8569708,-0.127124 -1.1544515,-0.127124 0.2822217,0 2.3569621,-0.225917 2.3569621,-2.427242 0,-1.91654 -1.1565326,-2.314267 -2.6768393,-2.393652 v -0.01912 H 6.618976 c -0.098491,0 -0.1961813,7.19e-4 -0.2930054,0.00155 -0.096927,-8.33e-4 -0.1944079,-0.00155 -0.2930054,-0.00155 z m 4.2550372,0 v 9.9342783 h 2.2479247 v -0.127124 c -0.620887,0 -0.818555,-0.663522 -0.818555,-1.5384079 V 3.1762907 c 0,-0.959552 0.211779,-1.566829 0.818555,-1.566829 v -0.126607 z m -3.5982297,0.187585 c 0.8267115,0.033304 1.8097086,0.311217 1.8097086,2.211235 0,2.14488 -0.9317209,2.413289 -1.806608,2.413289 h -0.0062 c -0.8748871,0 -1.8066081,-0.268409 -1.8066081,-2.413289 0,-1.900142 0.9829638,-2.177961 1.8097087,-2.211235 z m -0.0031,4.934583 h 0.0062 c 0.8748871,0 1.806608,0.268408 1.806608,2.413289 0,1.9000193 -0.9829971,2.1779323 -1.8097086,2.2112363 -0.8267443,-0.03327 -1.8097081,-0.311093 -1.8097081,-2.2112363 0,-2.144881 0.931721,-2.413289 1.8066087,-2.413289 z" />
    <path
       id="path2581"
       style="font-size:14.1111px;font-family:Butler;-inkscape-font-specification:Butler;opacity:0.809045;mix-blend-mode:normal;fill:#000000;stroke:none;stroke-width:0.259046"
       d="m 0.52489777,1.2798902 v 0.1237623 c 0.59314303,0 0.80016283,0.5936323 0.80016283,1.5316255 v 6.427571 c 0,0.855228 -0.1932259,1.503842 -0.80016283,1.503842 v 0.124267 H 2.7223143 V 1.2798902 Z M 5.5506684,1.4753848 v 0.01869 c -1.486396,0.07754 -2.6166941,0.4661798 -2.6166941,2.3398699 0,2.1518643 2.0281235,2.3727052 2.3040043,2.3727052 -0.290797,0 -0.7035723,0.019234 -1.128513,0.1242677 0.4249407,0.1050338 0.837716,0.1242677 1.128513,0.1242677 -0.2758808,0 -2.3040043,0.2208419 -2.3040043,2.3727053 0,1.8736874 1.130302,2.2623304 2.6166941,2.3398724 v 0.01869 h 0.3556279 c 0.096385,0 0.1916734,-1.97e-4 0.2864216,-9.78e-4 0.094645,8.13e-4 0.1901445,9.78e-4 0.2864226,9.78e-4 h 0.3556278 v -0.01869 c 1.4861429,-0.07761 2.6166941,-0.466397 2.6166941,-2.3398724 0,-2.1518634 -2.0281234,-2.3727053 -2.3040043,-2.3727053 0.290797,0 0.7035724,-0.019234 1.1285131,-0.1242677 C 7.8510305,6.2258842 7.4382551,6.2066503 7.1474581,6.2066503 c 0.2758809,0 2.3040043,-0.2208409 2.3040043,-2.3727052 0,-1.873478 -1.1305473,-2.2622686 -2.6166941,-2.3398699 v -0.01869 H 6.4791405 c -0.096277,0 -0.1917731,7.028e-4 -0.2864226,0.00152 -0.094752,-8.143e-4 -0.1900399,-0.00152 -0.2864216,-0.00152 z m 4.1594322,0 v 9.7110682 h 2.1974184 v -0.124268 c -0.606937,0 -0.800164,-0.648613 -0.800164,-1.5038411 V 3.1307716 c 0,-0.9379922 0.207021,-1.5316245 0.800164,-1.5316245 V 1.4753848 Z M 6.1927179,1.658755 c 0.8081369,0.032556 1.7690473,0.3042244 1.7690473,2.1615516 0,2.0966875 -0.9107865,2.3590657 -1.766016,2.3590657 h -0.00606 c -0.8552295,0 -1.766016,-0.2623782 -1.766016,-2.3590657 0,-1.8574485 0.9608782,-2.1290252 1.7690474,-2.1615516 z m -0.00303,4.8237097 h 0.00606 c 0.8552305,0 1.7660161,0.2623771 1.7660161,2.3590658 0,1.8573275 -0.9609105,2.1289965 -1.7690464,2.1615525 C 5.3845487,10.97056 4.4236715,10.69898 4.4236715,8.8415305 c 0,-2.0966887 0.9107866,-2.3590658 1.7660164,-2.3590658 z" />
    <path
       id="path2678"
       style="font-size:14.1111px;font-family:Butler;-inkscape-font-specification:Butler;opacity:0.836683;fill:#b3b3b3;stroke:none;stroke-width:0.265"
       d="m -11.64425,7.9610004 v 0.126607 c 0.606776,0 0.818554,0.607277 0.818554,1.56683 v 6.5753096 c 0,0.874885 -0.197667,1.538407 -0.818554,1.538407 v 0.127124 h 2.2479246 V 7.9610004 Z m 5.141288,0.199988 v 0.01912 c -1.5205613,0.079322 -2.6768392,0.476895 -2.6768392,2.3936516 0,2.201325 2.0747404,2.427242 2.3569621,2.427242 -0.2974807,0 -0.7197439,0.01968 -1.1544515,0.127124 0.4347076,0.107448 0.8569708,0.127124 1.1544515,0.127124 -0.2822217,0 -2.3569621,0.225918 -2.3569621,2.427242 0,1.916754 1.1562828,2.31433 2.6768392,2.393654 v 0.01912 h 0.3638021 c 0.098597,0 0.1960793,-2.01e-4 0.2930054,-10e-4 0.096824,8.31e-4 0.1945146,10e-4 0.2930054,10e-4 h 0.363802 v -0.01912 c 1.5203017,-0.07939 2.676839,-0.477117 2.676839,-2.393654 0,-2.201324 -2.0747401,-2.427242 -2.3569618,-2.427242 0.2974807,0 0.7197439,-0.01968 1.1544515,-0.127124 -0.4347076,-0.107448 -0.8569708,-0.127124 -1.1544515,-0.127124 0.2822217,0 2.3569618,-0.225917 2.3569618,-2.427242 0,-1.9165396 -1.1565323,-2.3142666 -2.676839,-2.3936516 v -0.01912 h -0.363802 c -0.098491,0 -0.1961813,7.19e-4 -0.2930054,0.00155 -0.096927,-8.33e-4 -0.1944079,-0.00155 -0.2930054,-0.00155 z m 4.2550369,0 V 18.095266 H 0 v -0.127124 c -0.620887,0 -0.8185551,-0.663522 -0.8185551,-1.538407 V 9.8544244 c 0,-0.959552 0.2117791,-1.566829 0.8185551,-1.566829 v -0.126607 z m -3.5982294,0.187585 c 0.8267115,0.033304 1.8097086,0.311217 1.8097086,2.2112346 0,2.14488 -0.9317209,2.413289 -1.806608,2.413289 h -0.0062 c -0.8748871,0 -1.8066081,-0.268409 -1.8066081,-2.413289 0,-1.9001416 0.9829638,-2.1779606 1.8097087,-2.2112346 z m -0.0031,4.9345826 h 0.0062 c 0.8748871,0 1.806608,0.268408 1.806608,2.413289 0,1.900019 -0.9829971,2.177932 -1.8097086,2.211236 -0.8267443,-0.03327 -1.8097081,-0.311093 -1.8097081,-2.211236 0,-2.144881 0.931721,-2.413289 1.8066087,-2.413289 z" />
    <path
       id="path2680"
       style="font-size:14.1111px;font-family:Butler;-inkscape-font-specification:Butler;opacity:1;fill:#ffffff;stroke:#333333;stroke-width:0.259046;stroke-dasharray:none"
       d="m 1.0825772,0.84613951 v 0.12376233 c 0.5931426,0 0.8001622,0.59363236 0.8001622,1.53162566 v 6.4275724 c 0,0.8552278 -0.1932257,1.5038421 -0.8001622,1.5038421 v 0.124267 H 3.2799945 V 0.84613951 Z M 6.1083479,1.0416342 v 0.01869 c -1.4863962,0.07754 -2.6166943,0.4661798 -2.6166943,2.33987 0,2.1518646 2.0281236,2.3727055 2.3040045,2.3727055 -0.2907971,0 -0.7035724,0.019234 -1.1285122,0.1242678 0.4249398,0.1050338 0.8377151,0.1242677 1.1285122,0.1242677 -0.2758809,0 -2.3040045,0.2208419 -2.3040045,2.3727053 0,1.8736885 1.130303,2.2623315 2.6166943,2.3398725 v 0.01869 h 0.3556279 c 0.096385,0 0.1916744,-1.97e-4 0.2864226,-9.78e-4 0.094645,8.13e-4 0.1901435,9.78e-4 0.2864216,9.78e-4 h 0.3556279 v -0.01869 c 1.486143,-0.07761 2.6166941,-0.466396 2.6166941,-2.3398721 0,-2.1518634 -2.0281234,-2.3727053 -2.3040043,-2.3727053 0.2907971,0 0.7035724,-0.019234 1.1285132,-0.1242677 C 8.4087101,5.7921341 7.9959348,5.7729001 7.7051377,5.7729001 c 0.2758809,0 2.3040043,-0.220841 2.3040043,-2.3727055 0,-1.8734781 -1.1305472,-2.2622688 -2.6166941,-2.33987 v -0.01869 H 7.03682 c -0.096277,0 -0.1917731,7.028e-4 -0.2864216,0.00152 -0.094752,-8.143e-4 -0.1900399,-0.00152 -0.2864226,-0.00152 z m 4.1594331,0 v 9.7110698 h 2.197418 v -0.124268 c -0.606937,0 -0.800164,-0.6486148 -0.800164,-1.5038414 V 2.6970211 c 0,-0.9379922 0.207021,-1.5316246 0.800164,-1.5316246 V 1.0416342 Z M 6.7503984,1.2250043 c 0.808136,0.032556 1.7690465,0.3042244 1.7690465,2.1615518 0,2.0966878 -0.9107866,2.359066 -1.7660162,2.359066 h -0.00606 c -0.8552295,0 -1.7660161,-0.2623782 -1.7660161,-2.359066 0,-1.8574486 0.9608782,-2.1290253 1.7690458,-2.1615518 z m -0.00303,4.8237103 h 0.00606 c 0.8552296,0 1.7660152,0.2623772 1.7660152,2.3590658 0,1.8573286 -0.9609105,2.1289976 -1.7690465,2.1615536 -0.8081683,-0.03252 -1.7690465,-0.304104 -1.7690465,-2.1615536 0,-2.0966886 0.9107866,-2.3590658 1.7660178,-2.3590658 z" />
  </g>
</svg>
