<?xml version="1.0" encoding="UTF-8" standalone="no"?>
<!-- Created with Inkscape (http://www.inkscape.org/) -->

<svg
   width="48"
   height="48"
   viewBox="0 0 12.7 12.7"
   version="1.1"
   id="svg5"
   sodipodi:docname="time-butler-logox48.svg"
   inkscape:version="1.2.2 (732a01da63, 2022-12-09)"
   xmlns:inkscape="http://www.inkscape.org/namespaces/inkscape"
   xmlns:sodipodi="http://sodipodi.sourceforge.net/DTD/sodipodi-0.dtd"
   xmlns="http://www.w3.org/2000/svg"
   xmlns:svg="http://www.w3.org/2000/svg">
  <sodipodi:namedview
     id="namedview11"
     pagecolor="#a201a2"
     bordercolor="#000000"
     borderopacity="0.25"
     inkscape:showpageshadow="2"
     inkscape:pageopacity="0"
     inkscape:pagecheckerboard="0"
     inkscape:deskcolor="#d1d1d1"
     showgrid="false"
     inkscape:zoom="5.0920805"
     inkscape:cx="28.181015"
     inkscape:cy="32.206875"
     inkscape:window-width="1366"
     inkscape:window-height="715"
     inkscape:window-x="-8"
     inkscape:window-y="-8"
     inkscape:window-maximized="1"
     inkscape:current-layer="layer1" />
  <defs
     id="defs2">
    <filter
       style="color-interpolation-filters:sRGB"
       id="filter3408"
       x="-0.085721"
       y="-0.098493244"
       width="1.171442"
       height="1.1969865">
      <feGaussianBlur
         stdDeviation="0.41589866"
         id="feGaussianBlur3410" />
    </filter>
  </defs>
  <g
     id="layer1">
    <path
       id="path2581"
       style="font-size:14.1111px;font-family:Butler;-inkscape-font-specification:Butler;opacity:0.809045;mix-blend-mode:normal;fill:#000000;stroke:none;stroke-width:0.259046"
       d="m 0.52489777,1.2798902 v 0.1237623 c 0.59314303,0 0.80016283,0.5936323 0.80016283,1.5316255 v 6.427571 c 0,0.855228 -0.1932259,1.503842 -0.80016283,1.503842 v 0.124267 H 2.7223143 V 1.2798902 Z M 5.5506684,1.4753848 v 0.01869 c -1.486396,0.07754 -2.6166941,0.4661798 -2.6166941,2.3398699 0,2.1518643 2.0281235,2.3727052 2.3040043,2.3727052 -0.290797,0 -0.7035723,0.019234 -1.128513,0.1242677 0.4249407,0.1050338 0.837716,0.1242677 1.128513,0.1242677 -0.2758808,0 -2.3040043,0.2208419 -2.3040043,2.3727053 0,1.8736874 1.130302,2.2623304 2.6166941,2.3398724 v 0.01869 h 0.3556279 c 0.096385,0 0.1916734,-1.97e-4 0.2864216,-9.78e-4 0.094645,8.13e-4 0.1901445,9.78e-4 0.2864226,9.78e-4 h 0.3556278 v -0.01869 c 1.4861429,-0.07761 2.6166941,-0.466397 2.6166941,-2.3398724 0,-2.1518634 -2.0281234,-2.3727053 -2.3040043,-2.3727053 0.290797,0 0.7035724,-0.019234 1.1285131,-0.1242677 C 7.8510305,6.2258842 7.4382551,6.2066503 7.1474581,6.2066503 c 0.2758809,0 2.3040043,-0.2208409 2.3040043,-2.3727052 0,-1.873478 -1.1305473,-2.2622686 -2.6166941,-2.3398699 v -0.01869 H 6.4791405 c -0.096277,0 -0.1917731,7.028e-4 -0.2864226,0.00152 -0.094752,-8.143e-4 -0.1900399,-0.00152 -0.2864216,-0.00152 z m 4.1594322,0 v 9.7110682 h 2.1974184 v -0.124268 c -0.606937,0 -0.800164,-0.648613 -0.800164,-1.5038411 V 3.1307716 c 0,-0.9379922 0.207021,-1.5316245 0.800164,-1.5316245 V 1.4753848 Z M 6.1927179,1.658755 c 0.8081369,0.032556 1.7690473,0.3042244 1.7690473,2.1615516 0,2.0966875 -0.9107865,2.3590657 -1.766016,2.3590657 h -0.00606 c -0.8552295,0 -1.766016,-0.2623782 -1.766016,-2.3590657 0,-1.8574485 0.9608782,-2.1290252 1.7690474,-2.1615516 z m -0.00303,4.8237097 h 0.00606 c 0.8552305,0 1.7660161,0.2623771 1.7660161,2.3590658 0,1.8573275 -0.9609105,2.1289965 -1.7690464,2.1615525 C 5.3845487,10.97056 4.4236715,10.69898 4.4236715,8.8415305 c 0,-2.0966887 0.9107866,-2.3590658 1.7660164,-2.3590658 z" />
    <path
       id="path2680"
       style="font-size:14.1111px;font-family:Butler;-inkscape-font-specification:Butler;opacity:1;fill:#ffffff;stroke:#1a1a1a;stroke-width:0.259046;stroke-dasharray:none"
       d="m 1.0825772,0.84613951 v 0.12376233 c 0.5931426,0 0.8001622,0.59363236 0.8001622,1.53162566 v 6.4275724 c 0,0.8552278 -0.1932257,1.5038421 -0.8001622,1.5038421 v 0.124267 H 3.2799945 V 0.84613951 Z M 6.1083479,1.0416342 v 0.01869 c -1.4863962,0.07754 -2.6166943,0.4661798 -2.6166943,2.33987 0,2.1518646 2.0281236,2.3727055 2.3040045,2.3727055 -0.2907971,0 -0.7035724,0.019234 -1.1285122,0.1242678 0.4249398,0.1050338 0.8377151,0.1242677 1.1285122,0.1242677 -0.2758809,0 -2.3040045,0.2208419 -2.3040045,2.3727053 0,1.8736885 1.130303,2.2623315 2.6166943,2.3398725 v 0.01869 h 0.3556279 c 0.096385,0 0.1916744,-1.97e-4 0.2864226,-9.78e-4 0.094645,8.13e-4 0.1901435,9.78e-4 0.2864216,9.78e-4 h 0.3556279 v -0.01869 c 1.486143,-0.07761 2.6166941,-0.466396 2.6166941,-2.3398721 0,-2.1518634 -2.0281234,-2.3727053 -2.3040043,-2.3727053 0.2907971,0 0.7035724,-0.019234 1.1285132,-0.1242677 C 8.4087101,5.7921341 7.9959348,5.7729001 7.7051377,5.7729001 c 0.2758809,0 2.3040043,-0.220841 2.3040043,-2.3727055 0,-1.8734781 -1.1305472,-2.2622688 -2.6166941,-2.33987 v -0.01869 H 7.03682 c -0.096277,0 -0.1917731,7.028e-4 -0.2864216,0.00152 -0.094752,-8.143e-4 -0.1900399,-0.00152 -0.2864226,-0.00152 z m 4.1594331,0 v 9.7110698 h 2.197418 v -0.124268 c -0.606937,0 -0.800164,-0.6486148 -0.800164,-1.5038414 V 2.6970211 c 0,-0.9379922 0.207021,-1.5316246 0.800164,-1.5316246 V 1.0416342 Z M 6.7503984,1.2250043 c 0.808136,0.032556 1.7690465,0.3042244 1.7690465,2.1615518 0,2.0966878 -0.9107866,2.359066 -1.7660162,2.359066 h -0.00606 c -0.8552295,0 -1.7660161,-0.2623782 -1.7660161,-2.359066 0,-1.8574486 0.9608782,-2.1290253 1.7690458,-2.1615518 z m -0.00303,4.8237103 h 0.00606 c 0.8552296,0 1.7660152,0.2623772 1.7660152,2.3590658 0,1.8573286 -0.9609105,2.1289976 -1.7690465,2.1615536 -0.8081683,-0.03252 -1.7690465,-0.304104 -1.7690465,-2.1615536 0,-2.0966886 0.9107866,-2.3590658 1.7660178,-2.3590658 z" />
  </g>
</svg>
